<svg width="23" height="20" viewBox="0 0 23 20" fill="none" xmlns="http://www.w3.org/2000/svg">
<g clip-path="url(#clip0_4_214)">
<path d="M16.0569 16.0023C11.6526 19.1859 5.49593 18.3049 2.23487 14.6537C-0.912626 11.1285 -0.715779 6.04315 2.69877 2.82459C6.22688 -0.500733 11.7737 -0.94465 15.7946 1.78316C17.2352 2.76028 18.311 4.00338 19.0116 5.50808C19.7164 7.02152 19.9305 8.59614 19.6862 10.2201C19.4425 11.8366 18.7315 13.2769 17.5745 14.6212C17.6681 14.6768 17.7679 14.7167 17.8395 14.7816C19.1114 15.9305 20.3786 17.0836 21.6505 18.2325C21.952 18.5047 22.102 18.8219 22.0125 19.204C21.835 19.9644 20.837 20.2579 20.1969 19.7359C19.8968 19.4918 19.6208 19.2227 19.3358 18.9642C18.291 18.0171 17.2469 17.0693 16.2021 16.1221C16.1587 16.0847 16.1133 16.0497 16.0569 16.0023ZM17.5862 8.98637C17.5972 5.12659 14.162 2.00606 9.89747 2.00044C5.6446 1.99482 2.21215 5.09038 2.19357 8.94766C2.17499 12.8168 5.6033 15.9461 9.88095 15.9642C14.1166 15.9823 17.5752 12.8499 17.5862 8.98637Z" fill="#3D3D3D"/>
</g>
<defs>
<clipPath id="clip0_4_214">
<rect width="22.038" height="20" fill="white"/>
</clipPath>
</defs>
</svg>
