<svg width="23" height="20" viewBox="0 0 23 20" fill="none" xmlns="http://www.w3.org/2000/svg">
<g clip-path="url(#clip0_4_209)">
<path d="M11.0238 18.8873C10.7099 18.8873 10.4073 18.7842 10.1715 18.5968C9.28082 17.8903 8.42211 17.2264 7.66449 16.6408L7.66062 16.6377C5.43941 14.9207 3.52131 13.4378 2.18673 11.9771C0.694875 10.3441 0 8.79578 0 7.10434C0 5.46097 0.621199 3.94485 1.74905 2.83508C2.89035 1.71219 4.45639 1.09375 6.15918 1.09375C7.43185 1.09375 8.59738 1.45874 9.62329 2.1785C10.141 2.54181 10.6103 2.98645 11.0238 3.5051C11.4374 2.98645 11.9066 2.54181 12.4245 2.1785C13.4504 1.45874 14.6159 1.09375 15.8886 1.09375C17.5912 1.09375 19.1574 1.71219 20.2987 2.83508C21.4266 3.94485 22.0476 5.46097 22.0476 7.10434C22.0476 8.79578 21.3529 10.3441 19.8611 11.9769C18.5265 13.4378 16.6085 14.9205 14.3877 16.6374C13.6287 17.224 12.7687 17.8889 11.876 18.5971C11.6403 18.7842 11.3375 18.8873 11.0238 18.8873V18.8873ZM6.15918 2.26532C4.8214 2.26532 3.59246 2.74963 2.69842 3.62915C1.7911 4.52194 1.29135 5.75607 1.29135 7.10434C1.29135 8.52692 1.8742 9.79919 3.18102 11.2296C4.44411 12.6122 6.32285 14.0645 8.49814 15.7462L8.50217 15.7492C9.26265 16.3371 10.1247 17.0036 11.022 17.7153C11.9246 17.0023 12.788 16.3347 13.55 15.7458C15.7251 14.0642 17.6037 12.6122 18.8668 11.2296C20.1734 9.79919 20.7563 8.52692 20.7563 7.10434C20.7563 5.75607 20.2565 4.52194 19.3492 3.62915C18.4553 2.74963 17.2262 2.26532 15.8886 2.26532C14.9086 2.26532 14.0089 2.54791 13.2144 3.10516C12.5064 3.60199 12.0132 4.23004 11.7241 4.66949C11.5754 4.89548 11.3136 5.03036 11.0238 5.03036C10.734 5.03036 10.4722 4.89548 10.3236 4.66949C10.0346 4.23004 9.54137 3.60199 8.83321 3.10516C8.03876 2.54791 7.139 2.26532 6.15918 2.26532V2.26532Z" fill="#3D3D3D"/>
</g>
<defs>
<clipPath id="clip0_4_209">
<rect width="22.0477" height="20" fill="white"/>
</clipPath>
</defs>
</svg>
