<svg width="16" height="14" viewBox="0 0 16 14" fill="none" xmlns="http://www.w3.org/2000/svg">
<path d="M5.03186 14C11.0699 14 14.3718 8.6143 14.3718 3.9443C14.3718 3.79129 14.3689 3.63906 14.3624 3.48741C15.0033 2.98859 15.5605 2.36595 16 1.6575C15.4118 1.93884 14.7789 2.1283 14.1149 2.21372C14.7926 1.77623 15.313 1.08384 15.5585 0.258617C14.9241 0.663588 14.2217 0.957863 13.4742 1.11656C12.8749 0.429657 12.0218 0 11.0779 0C9.26483 0 7.79464 1.58285 7.79464 3.53385C7.79464 3.81127 7.82357 4.08086 7.87962 4.33967C5.1516 4.19214 2.73239 2.78562 1.11352 0.647326C0.831273 1.16946 0.668767 1.77642 0.668767 2.42356C0.668767 3.64964 1.24837 4.7321 2.12968 5.36552C1.59121 5.34769 1.08531 5.18821 0.642926 4.92332C0.642198 4.93802 0.642198 4.95291 0.642198 4.96839C0.642198 6.68016 1.77392 8.10921 3.27578 8.43307C3.00008 8.51399 2.71001 8.55748 2.41047 8.55748C2.19901 8.55748 1.99338 8.53476 1.79339 8.49381C2.21121 9.89778 3.42318 10.9197 4.86007 10.9485C3.73636 11.8966 2.32094 12.4614 0.783049 12.4614C0.518272 12.4614 0.256952 12.4452 0 12.4124C1.45273 13.4148 3.17769 14 5.03186 14Z" fill="#46A358" fill-opacity="0.6"/>
</svg>
