<svg width="18" height="14" viewBox="0 0 18 14" fill="none" xmlns="http://www.w3.org/2000/svg">
<path d="M3.23828 0.174975C5.88803 -0.0583368 11.7767 -0.058313 14.4268 0.174975C17.2975 0.408298 17.666 2.19769 17.666 7.0197L17.6611 7.88884C17.6102 12.0679 17.1181 13.7176 14.4268 13.8635C11.7767 14.019 5.88804 14.019 3.23828 13.8635C0.547316 13.6446 0.0558002 12.0585 0.00488281 7.88787L0 7.0197C7.7634e-07 2.19794 0.367986 0.408448 3.23828 0.174975ZM13.3457 4.34392C10.9382 4.20064 6.72637 4.20061 4.31934 4.34392C4.25926 4.98792 4.23633 5.84136 4.23633 7.0197C4.23633 8.18413 4.25982 9.03079 4.31836 9.67205C6.77337 9.76563 10.8927 9.76563 13.3477 9.67205C13.4056 9.02471 13.4297 8.17562 13.4297 7.0197C13.4297 5.84131 13.4058 4.98793 13.3457 4.34392ZM6.625 7.0197C6.625 5.60768 8.12645 4.70222 9.375 5.3615C10.7071 6.06526 10.7071 7.97316 9.375 8.67693C8.12653 9.33627 6.62525 8.43157 6.625 7.0197Z" fill="#46A358" fill-opacity="0.6"/>
</svg>
