<svg width="23" height="20" viewBox="0 0 23 20" fill="none" xmlns="http://www.w3.org/2000/svg">
<g clip-path="url(#clip0_4_201)">
<path d="M15.7574 16.8745H9.08447C6.23567 16.8745 3.91799 14.7721 3.91799 12.1879V7.38404C3.91799 4.98174 2.59805 2.75812 0.387184 1.43578C-0.00985936 1.19832 -0.119475 0.71388 0.142293 0.353711C0.404061 -0.00649689 0.938059 -0.105971 1.33519 0.131564C2.59727 0.886427 3.62118 1.88203 4.35336 3.0283C4.51158 3.1891 5.78744 4.41583 7.879 4.41583H17.7946C20.4999 4.36994 22.6173 6.83265 21.91 9.20136L20.7686 13.3283C20.1911 15.4163 18.1304 16.8745 15.7574 16.8745V16.8745ZM5.4229 5.53676C5.56606 6.13669 5.64015 6.75528 5.64015 7.38404V12.1879C5.64015 13.9107 7.18527 15.3123 9.08447 15.3123H15.7574C17.3394 15.3123 18.7132 14.3401 19.0982 12.9482L20.2396 8.8212C20.6599 7.41372 19.4016 5.95082 17.7946 5.97804H7.87896C6.93302 5.97804 6.10965 5.79304 5.4229 5.53676V5.53676ZM8.65393 19.0226C8.65393 18.4833 8.17202 18.0462 7.57758 18.0462C6.14939 18.0978 6.15064 19.9479 7.57758 19.9989C8.17202 19.9989 8.65393 19.5618 8.65393 19.0226ZM17.2217 19.0226C17.2217 18.4833 16.7398 18.0462 16.1453 18.0462C14.7171 18.0978 14.7184 19.9479 16.1453 19.9989C16.7398 19.9989 17.2217 19.5618 17.2217 19.0226ZM18.6557 8.32137C18.6557 7.88996 18.2702 7.54026 17.7946 7.54026H8.22339C7.08091 7.5815 7.08177 9.06158 8.22339 9.10248H17.7946C18.2702 9.10248 18.6557 8.75277 18.6557 8.32137Z" fill="#46A358"/>
</g>
<defs>
<clipPath id="clip0_4_201">
<rect width="22.0476" height="20" fill="white"/>
</clipPath>
</defs>
</svg>
